<svg width="28" height="28" viewBox="0 0 134 138" fill="none" xmlns="http://www.w3.org/2000/svg">
<path d="M87.8791 27.4692H45.9626C34.3823 27.4692 24.9639 37.14 24.9639 49.0306V88.406C24.9639 100.297 34.3823 109.967 45.9626 109.967H87.8791C99.4594 109.967 108.878 100.297 108.878 88.406V49.0306C108.878 37.14 99.4594 27.4692 87.8791 27.4692ZM32.3706 49.0306C32.3706 41.3343 38.4672 35.0745 45.9626 35.0745H87.8791C95.3745 35.0745 101.471 41.3343 101.471 49.0306V88.406C101.471 96.1022 95.3745 102.362 87.8791 102.362H45.9626C38.4672 102.362 32.3706 96.1022 32.3706 88.406V49.0306Z" fill="#9CA3AF"/>
<path d="M66.9192 88.778C77.6902 88.778 86.4535 79.7799 86.4535 68.7203C86.4535 57.6607 77.6902 48.6626 66.9192 48.6626C56.1481 48.6626 47.3848 57.6607 47.3848 68.7203C47.3848 79.7799 56.1481 88.778 66.9192 88.778ZM66.9192 56.2718C73.6053 56.2718 79.0428 61.855 79.0428 68.7203C79.0428 75.5856 73.6053 81.1688 66.9192 81.1688C60.233 81.1688 54.7954 75.5856 54.7954 68.7203C54.7954 61.855 60.233 56.2718 66.9192 56.2718Z" fill="#9CA3AF"/>
<path d="M88.2641 51.8992C91.1659 51.8992 93.5282 49.4736 93.5282 46.494C93.5282 43.5145 91.1659 41.0889 88.2641 41.0889C85.3623 41.0889 83 43.5145 83 46.494C83 49.4736 85.3623 51.8992 88.2641 51.8992Z" fill="#9CA3AF"/>
</svg>
