<svg width="28" height="28" viewBox="0 0 134 138" fill="none" xmlns="http://www.w3.org/2000/svg">
<path d="M79.3543 89.0623C62.0165 89.0583 47.9082 74.572 47.9043 56.7737C47.912 52.2628 51.4843 48.5908 55.8737 48.5908C56.3246 48.5908 56.7717 48.6304 57.1956 48.7095C58.1359 48.8678 59.026 49.1962 59.8507 49.6869C59.9702 49.7581 60.0511 49.8768 60.0704 50.0153L61.9009 61.8742C61.924 62.0127 61.8816 62.1512 61.793 62.2541C60.7795 63.4055 59.4885 64.2326 58.0549 64.648L57.3651 64.8498L57.6271 65.5383C59.9933 71.7151 64.8027 76.6573 70.8221 79.0869L71.4927 79.356L71.6854 78.6437C72.09 77.1678 72.8954 75.8422 74.0169 74.8055C74.0978 74.7303 74.2057 74.6868 74.3175 74.6868C74.3406 74.6868 74.3675 74.6868 74.3907 74.6947L85.9363 76.5742C86.075 76.598 86.1868 76.6771 86.26 76.7998C86.734 77.6465 87.0539 78.5646 87.2119 79.5261C87.2851 79.9574 87.3236 80.4085 87.3236 80.8833C87.3236 85.3903 83.7475 89.0583 79.3543 89.0662V89.0623Z" fill="#9CA3AF"/>
<path d="M110.099 64.8144C109.163 53.9645 104.323 43.902 96.4689 36.4827C88.5688 29.016 78.3142 24.9048 67.5933 24.9048C44.0627 24.9048 24.9176 44.5628 24.9176 68.7239C24.9176 76.8316 27.0948 84.7336 31.2183 91.6147L22.0234 112.519L51.4733 109.298C56.5948 111.451 62.017 112.543 67.5933 112.543C69.0615 112.543 70.5644 112.464 72.0712 112.306C73.4007 112.159 74.7418 111.945 76.0637 111.672C95.7714 107.585 110.157 89.6244 110.269 68.9573V68.7239C110.269 67.4062 110.211 66.0925 110.096 64.8184L110.099 64.8144ZM52.6024 100.122L36.3091 101.903L41.1762 90.8352L40.2051 89.4938C40.1319 89.3949 40.0625 89.296 39.9816 89.1852C35.7579 83.1983 33.5266 76.1233 33.5266 68.7199C33.5266 49.4299 48.8104 33.7406 67.5933 33.7406C85.193 33.7406 100.107 47.8392 101.544 65.8353C101.621 66.8008 101.66 67.7703 101.66 68.7239C101.66 68.9969 101.656 69.266 101.648 69.5509C101.286 85.6872 90.3068 99.3901 74.9499 102.88C73.7784 103.149 72.5761 103.351 71.3776 103.486C70.1329 103.632 68.8573 103.703 67.5894 103.703C63.0767 103.703 58.6912 102.805 54.5446 101.032C54.0861 100.842 53.6352 100.64 53.2113 100.431L52.5947 100.126L52.6024 100.122Z" fill="#9CA3AF"/>
</svg>
